# xmcd
#
# Track frame offsets:
#	150
#	14250
#	27515
#	45375
#	63000
#	84862
#	102300
#	120937
#	135075
#	155400
#	167812
#	187875
#	207225
#	225862
#	242812
#
# Disc length: 3549 seconds
# Revision: 17
# Processed by: cddbd v1.5.2PL0 Copyright (c) Steve Scherf et al.
# Submitted via: dBpowerAMP V12.0
#
DISCID=a50ddb0f
DTITLE=Various Artist - Deep Blues: The Rounder 25th Anniversary Blues Anthology, Disc 2 of Disc 0
DYEAR=1995
DGENRE=Blues
TTITLE0=Charles Brown - Nobody Knows the Trouble I've Seen
TTITLE1=Roomful of Blues with Duke Robillard - Texas Flood
TTITLE2=Ronnie Earl - Green Light
TTITLE3=Larry Davis - Help the Poor
TTITLE4=Ron Levy - Gimme a Break
TTITLE5=The Persuasions - My Jug and I
TTITLE6=Marcia Ball - Red Beans
TTITLE7=Smokin' Joe Kubek Band featuring Bnois King - You're My Brand
TTITLE8=Ann Peebles with Little Jimmy King - Full Time Lover
TTITLE9=Smokey Wilson - I Wanna Do It To You Babby
TTITLE10=Michelle Willson with Sugar Ray Norcia - You Got What It Takes
TTITLE11=Jimmy McCracklin with Irma Thomas - Tomorrow
TTITLE12=Preston Shannon Band - Beale St. Boogaloo
TTITLE13=Johnny Nocturne Band - What a Way To Go
TTITLE14=Lowell Fulson - Love Is the Bottom Line
EXTD=
EXTT0=
EXTT1=
EXTT2=
EXTT3=
EXTT4=
EXTT5=
EXTT6=
EXTT7=
EXTT8=
EXTT9=
EXTT10=
EXTT11=
EXTT12=
EXTT13=
EXTT14=
PLAYORDER=
